<?xml version="1.0" encoding="utf-8"?>
<!-- Generator: Adobe Illustrator 24.2.3, SVG Export Plug-In . SVG Version: 6.00 Build 0)  -->
<svg version="1.1" id="Layer_1" xmlns="http://www.w3.org/2000/svg" xmlns:xlink="http://www.w3.org/1999/xlink" x="0px" y="0px"
	 viewBox="0 0 720 720" style="enable-background:new 0 0 720 720;" xml:space="preserve">
<style type="text/css">
	.st0{stroke:#FFFFFF;stroke-miterlimit:10;}
</style>
<g>
	<path class="st0" d="M431.46,506.47c-5.04-13.54-13.48-7.8-21.14-5.08c-4.47,1.59-8.85,3.65-12.95,6.04
		c-7.93,4.62-16.23,8.7-23.81,13.74c-11.34,7.55-23.62,11.52-36.83,13.52c-8.08,1.23-8.08,1.36-8.46,9.73
		c-0.04,0.93,0.2,1.91-0.83,2.35c-1.15,0.49-2.24-0.01-2.97-0.87c-1.51-1.77-2.14-4.12-1.82-6.2c0.7-4.46-1.94-6.49-4.87-8.94
		c-9.85-8.23-19.56-16.64-29.17-25.16c-4.43-3.93-10.24-5.74-14.42-10.03c-1.64-1.68-2.66-0.22-2.83,1.5
		c-0.32,3.29-0.5,6.59-0.67,9.88c-0.05,0.91,0.36,1.87,0.2,2.73c-0.57,3.08,0.21,8.3-3.56,8.17c-5.46-0.19-1.39-4.87-1.46-7.38
		c-0.38-12.85-0.29-25.72,3.85-38.13c0.46-1.39,0.58-2.97,1.31-4.19c7.48-12.62,11.57-26.51,15.41-40.5
		c5.08-18.49,3.86-36.36-5.39-53.34c-3.42-6.28-7.3-12.34-11.25-18.31c-4.85-7.35-17.4-12.04-25.3-9.77
		c-9.07,2.61-10.68,8.79-4.04,15.3c3.2,3.14,6.9,5.36,10.98,7.18c8.4,3.75,12.26,18.35,7.02,25.84c-4.14,5.91-9.32,7.26-15.1,3.05
		c-3.45-2.51-4.14-1.41-5.75,1.75c-2.9,5.7-3.79,11.86-5.3,17.9c-0.37,1.46-0.18,2.9,0.45,4.3c1.34,3.01,2.77,5.72-2.99,4.94
		c-2.85-0.38-1.63,2.3-0.83,3.47c3.76,5.54,9.11,8.43,15.79,8.52c4.58,0.06,9.17-0.28,13.75-0.38c1.2-0.02,2.85-0.61,3.32,1.04
		c0.46,1.61-1.04,2.35-2.24,2.6c-10,2.06-20.18,5.51-29.54-1.78c-3.27-2.54-4.7-1.33-6,1.81c-10.3,24.85-28.28,44.03-47.17,62.26
		c-14,13.52-22.25,30.36-30.59,47.3c-5.03,10.2-9.66,20.6-14.47,30.91c-0.86,1.85-1.9,3.59-3.75,4.62c-1.54,0.86-3.2,1.16-4.63-0.09
		c-1.37-1.2-0.89-2.81-0.13-4.05c13.71-22.59,20.63-48.72,36.8-70.04c8.25-10.87,19.12-19.19,27.74-29.67
		c12.81-15.58,26.98-30.38,32.19-50.63c3.48-13.52,8.08-26.62,12.45-39.83c1.78-5.39,1.75-10.66,0.1-16.21
		c-2.21-7.46-5.59-14.85-3.63-23.01c2.32-9.67,11-15.44,20.9-14.8c12.35,0.79,21.79,6.29,28.21,16.56
		c4.75,7.6,9.64,15.37,12.73,23.72c6.51,17.63,6.85,35.5,1.54,53.96c-4.14,14.41-10.15,27.87-16.01,41.51
		c-4.24,9.87,4.04,22.19,14.93,22.39c14.16,0.25,28.22-1.41,42.19-3.54c8.35-1.27,16.89-1.16,25.1-2.77
		c15.66-3.06,30.5-8.81,45.11-15.32c17.89-7.96,34.91-17.79,53.85-23.55c15.46-4.7,29.45-13.09,43.95-20.18
		c9.16-4.48,18.27-8.78,29.28-8.14c7.71,0.45,15.32-3.54,23.28-3.7c8.6-0.18,16.32,2.23,22.62,8.25c5.64,5.39,6.99,15.6,3.26,21.84
		c-2.51,4.19-6.72,5.6-10.91,6.86c-3.99,1.2-5.05,3.17-4,7.31c2.8,11.06,1.07,15.23-9.62,19.83c-19.44,8.37-37.17,19.91-55.76,29.82
		c-10.7,5.71-21.17,12.57-30.27,20.89c-7.08,6.48-15.52,10.44-24.01,14.3c-15.05,6.84-29.15,15.54-44.13,22.38
		c-15.52,7.09-28.19,17.6-40.39,29.05c-10.28,9.65-23.16,13.64-36.47,16.99c-22.61,5.68-45.28,11.1-67.78,17.23
		c-13.61,3.71-24.42,11.41-34.86,20.21c-10.09,8.51-17.27,19.44-25.26,29.71c-2.2,2.82-4.6,8.5-8.6,5.39
		c-4.06-3.15,1.22-6.67,3.18-9.48c12.91-18.53,27.7-35.06,47.85-46.27c9.52-5.3,19.99-7.24,30.16-10.06
		c20.5-5.68,41.26-10.45,61.91-15.57c13.25-3.29,24.62-10.28,33.43-20.25c10.02-11.33,23.26-17.02,35.95-23.82
		c15.02-8.05,29.89-16.42,45.49-23.34c2.01-0.89,4.14-1.6,5.96-2.78c1.87-1.2,7.66-0.85,2.24-5.65c-2.11-1.87,0.97-3.79,2.83-3.81
		c13.31-0.09,21.76-9.61,31.53-16.3c7.94-5.44,16.95-8.76,25-13.85c11.59-7.34,24.22-12.9,35.42-20.9c1.77-1.27,3.72-2.72,5.76-3.08
		c5.72-1.02,5.42-4.84,4.23-8.72c-1.86-6.06-6.18-9.73-12.32-11.47c-15.19-4.3-29.43-1.6-43.03,5.68c-3.88,2.08-7.47,4.67-11.27,6.9
		c-3.23,1.9-5.7,3.85-4.11,8.3c0.85,2.36-0.95,4.1-2.91,2.33c-7.54-6.83-14.53-2.21-21.39,0.77c-10.25,4.46-19.43,11.1-29.92,15.13
		c-2.41,0.93-2.88,2.52-2.08,4.82C432.45,500.31,433.62,502.51,431.46,506.47z M435.32,474.73c6.14-0.33,11.76-2.18,17.06-5.33
		c16.69-9.9,32.28-21.78,51.05-27.95c3.06-1.01,6.15-2.93,8.37-6.12c-3.12-1.09-4.97,0.71-6.98,1.73
		c-11.26,5.71-22.17,12.03-34.08,16.49c-13.02,4.88-25.93,10.32-35.42,21.25c-2.99-4.15-7.16-2.41-10.6-1.51
		c-10.9,2.85-20.52,8.73-30.39,13.93c-3.41,1.8-6.72,3.82-7.61,8.15c-0.37,1.82-1.85,2.49-3.74,2.59
		c-9.69,0.52-18.47,4.16-27.26,7.88c-7.6,3.21-15.29,6.21-22.98,9.21c-1.73,0.68-3.83,1.14-4.59-1.31c-0.6-1.95,0.92-3.07,2.5-3.72
		c2.71-1.12,5.53-2,8.23-3.14c6.56-2.77,13.08-5.62,19.62-8.44c-20.91,0.22-40.97,5.14-63.03,5.6c7.79,6.76,14.25,12.41,20.76,18
		c2.06,1.77,4.23,1.55,6.64,0.4c17.35-8.2,35.43-14.06,54.52-16.56c2.39-0.31,4.68-0.92,6.74-2.23
		C400.67,493.11,417.43,482.91,435.32,474.73z M566.69,447.71c3.3-2.55,9.53-3.39,8.06-9.47c-1.44-5.96-6.12-9.3-12.06-10.72
		c-0.89-0.21-1.79-0.44-2.7-0.51c-18.91-1.49-35.31,4.39-49.47,16.87c-1.4,1.24-1.92,2.66-1.16,4.4c0.75,1.72,2.26,1.68,3.75,1.36
		c2.69-0.57,5.34-1.29,8.03-1.85c9.51-1.98,19.38-2.12,28.11,1.55C556.08,452.22,561.23,453.17,566.69,447.71z M377.05,512.1
		c-1.78,0.01-2.88-0.18-3.9,0.05c-14.79,3.27-29.68,6.29-43.24,13.46c-1.44,0.76-4.48,0.66-3.74,3.01c0.65,2.08,3.42,1.48,5.39,1.46
		c0.54,0,1.08-0.16,1.62-0.25C348.85,527.3,363.6,522.45,377.05,512.1z M456.15,474.77c7.67-3.02,15.42-5.05,23.05-7.55
		c9.07-2.97,16.46-9.36,24.58-14.27c0.96-0.58,1.72-1.64,0.94-2.75c-0.46-0.65-1.49-1.33-2.21-1.28c-1.6,0.11-3.21,0.56-4.74,1.08
		c-14.57,4.97-26.44,14.72-39.44,22.45C457.45,472.98,456.87,473.99,456.15,474.77z M238.26,368.13c0.01,6.69,1.86,12.21,3.73,17.71
		c0.83,2.46,2.25,4.63,4.38,6.21c2.89,2.14,5.17,2.23,6.94-1.58c2.71-5.87,1.08-12.55-4.32-15.96
		C245.74,372.48,242.39,370.59,238.26,368.13z M410.43,494.71c12.74-4,26.3-6.23,38-15.68
		C433.31,480.15,421.43,486.26,410.43,494.71z"/>
</g>
</svg>
