<?xml version="1.0" encoding="utf-8"?>
<!-- Generator: Adobe Illustrator 24.2.3, SVG Export Plug-In . SVG Version: 6.00 Build 0)  -->
<svg version="1.1" id="Layer_1" xmlns="http://www.w3.org/2000/svg" xmlns:xlink="http://www.w3.org/1999/xlink" x="0px" y="0px"
	 viewBox="0 0 720 720" style="enable-background:new 0 0 720 720;" xml:space="preserve">
<style type="text/css">
	.st0{stroke:#FFFFFF;stroke-miterlimit:10;}
</style>
<g>
	<path class="st0" d="M488.9,412.85c-2.03-0.33-2.39,1.11-3.22,1.83c-6.91,5.94-11.8,6.35-19.8,2.19
		c-5.74-2.98-11.68-5.61-17.58-8.27c-8.42-3.81-8.45-3.77-6.03-12.52c-5.89,1.21-9.3,5.92-13.95,8.46c-0.36,0.2-0.7,1.29-0.5,1.54
		c4.33,5.47-1.2,6.94-3.97,8.67c-14.68,9.18-23.71,23.31-32.95,37.18c-4.99,7.49-10.46,14.19-18.43,18.61
		c-2.46,1.36-4.97,4.78-7.68,1.97c-2.91-3.02,2.53-4.03,2.83-6.97c-5.98-1.24-11.14,1.7-16.32,3.41
		c-13.93,4.6-26.8,10.91-36.13,23.09c-5.5,7.18-8.81,15.27-12.26,23.4c-1.07,2.53-2.2,5.03-3.43,7.48c-0.63,1.26-2.26,2.91-3.09,2.3
		c-6.88-5.06-7.01,3.25-10.29,5.12c-1.43,0.81-2.19,2.74-3.37,4.05c-2.34,2.59-4.79,4.26-6.27-0.66c-0.93-3.07-2.19-1.28-3.29-0.37
		c-5.16,4.26-10.35,8.48-15.37,12.89c-10.49,9.2-20.88,18.52-31.33,27.78c-1.02,0.91-2.05,1.89-3.24,2.5
		c-1.49,0.76-3.16,0.67-4.35-0.66c-1.29-1.44-0.76-3.11,0.34-4.29c3.23-3.43,6.42-6.96,10-10c14.39-12.21,28.34-24.92,42.69-37.19
		c11.62-9.94,21.29-21.56,27.86-36.05c6.83-15.07,19.67-25.77,32.66-35.82c11.93-9.23,25.74-14.11,40.24-17.35
		c3.36-0.75,4.95-2.28,6.31-5.79c4.96-12.86,13.13-23.6,24-32.19c1.08-0.85,2.26-1.64,3.14-2.67c8.69-10.15,18.94-12.87,31.74-8.17
		c6.66,2.45,13.22-1.41,19.05-4.31c10.31-5.12,19.68-4.18,28.97,2c1.67,1.11,3.42,2.23,4.11,4.11c2.85,7.79,8.83,12.57,15.31,17.2
		c5.51,3.93,7.12,10.65,9.81,16.5c1.47,3.21,2.81,6.5,4.29,9.7c0.96,2.07,2.6,3.21,4.88,3.87c16.58,4.79,23.79,16.16,21.68,33.65
		c-2.31,19.12-4.76,38.2-8.64,57.1c-1.3,6.3-1.76,12.88-1.74,19.33c0.05,11.13-4.74,20.68-9.45,30.09
		c-5.14,10.26-15.41,13.65-25.81,15.61c-15.51,2.92-31.29,3.08-47.02,3.04c-8.12-0.02-16.09,1.18-23.99,2.65
		c-16.26,3.02-32.83,3.31-49.14,5.92c-26.22,4.2-45.51,18.38-59.04,40.82c-9.25,15.34-20.72,29.11-30.6,44
		c-1.08,1.63-2.33,3.18-3.65,4.63c-1.8,1.97-4.14,3.81-6.63,1.81c-2.39-1.91-0.74-4.39,0.64-6.3c5.54-7.64,11.31-15.12,16.76-22.82
		c7.71-10.91,15.18-21.99,22.83-32.94c15.49-22.19,37.3-34.06,63.66-37.23c21.67-2.61,43.33-5.32,65.01-7.72
		c13.84-1.53,27.94,0.53,41.77-1.77c11.34-1.88,23.62-2.4,29.69-14.83c3.55-7.28,7.03-15.09,7.28-22.94
		c0.61-19.61,6.26-38.37,8.21-57.69c0.89-8.8,1.72-17.61,2.27-26.43c0.43-6.85-0.92-7.69-7.14-5.19c-1.45,0.58-3.19,1.78-4.34,0.32
		c-1.55-1.97,0.66-3.06,1.79-4.28c1.81-1.96,4.88-3.44,3.78-6.72c-1.09-3.26-4.5-3.56-7.29-4.26c-2.46-0.61-5.05-0.74-7.6-0.98
		c-2.52-0.24-5.44-0.96-6.88,1.86c-1.36,2.66-0.17,5.34,1.09,7.87c1.2,2.4,5.5,5.09,2.24,7.32c-3.08,2.11-4.14-2.99-6.11-4.81
		c-1.52-1.41-2.52-3.52-3.39-5.47c-3.08-6.98-12.89-8.14-17.7-1.98c-9.99,12.8-20.98,24.72-31.97,36.65
		c-6.5,7.05-9.06,21.41-5.26,28.61c1.92,3.64,4.18,4.61,8.12,2.84c4.24-1.91,7-5.6,10.83-8.01c2.28-1.44,2.3-4.55,1-7.02
		c-2.19-4.16-2.48-8.68-2.71-13.19c-0.11-2.15-1.18-5.46,2.12-5.82c2.79-0.3,2.58,2.9,3.11,4.88c0.31,1.14,0.44,2.32,0.64,3.48
		c1.33,7.63,2.66,8.49,10.33,6.56c9.1-2.28,17.15-6.75,24.87-11.92c1.53-1.03,3.45-3.24,5.02-1.09c1.25,1.72-1.22,3.07-2.54,4.02
		c-7.65,5.53-15.33,11.11-24.42,14.08c-3.71,1.21-4.44,2.96-3.38,6.54c2.34,7.93,6.54,14.23,14.18,17.86
		c1.24,0.59,2.95,0.97,2.41,2.74c-0.69,2.25-2.76,2.11-4.44,1.47c-6.07-2.3-10.87-6.25-14.24-11.83c-1.12-1.85-2.07-3.8-3.08-5.72
		c-1.07-2.04-2.5-2.6-4.08-0.67c-2.8,3.42-6.68,5.46-10.01,8.19c-1.58,1.29-3.35,2.98-0.99,4.78c8.8,6.74,13.43,16.9,20.7,24.87
		c2.5,2.74,4.59,5.92,8.13,7.59c1.54,0.73,2.69,2.05,1.77,3.79c-1.09,2.08-2.97,1.63-4.58,0.62c-4.05-2.53-7.17-6.13-10.3-9.64
		c-3.66-4.11-7.25-8.33-10.49-12.77c-4.68-6.4-11.06-10.41-17.92-13.94c-2.68-1.38-2.7,0.49-2.72,2c-0.06,4.7-0.8,9.43,0.4,14.11
		c0.39,1.52,1,3.1,0.91,4.61c-0.15,2.72,1.27,7.17-2.42,7.4c-3.63,0.22-1.82-4.23-2.64-6.57c-4.33-12.35-0.39-24.97-1.58-37.4
		c-0.29-3-0.81-4.63-4.49-4.17c-3.26,0.41-6.66-0.14-9.99-0.42c-1.66-0.14-3.16-0.82-2.98-2.9c0.15-1.77,1.27-3.32,2.97-3.08
		c13.79,1.94,16.23-8.74,19.88-17.88c1.59-3.98,1.21-8.98,8.23-7.71c2.76,0.5,4.48-3.55,5.88-6.05c2.66-4.73,6.1-8.53,10.47-11.76
		c6.22-4.6,9.76-11.15,12.13-18.43C486.21,428.97,488.19,421.06,488.9,412.85z M305.51,494.92c2.27-3.11,3.79-5.38,5.5-7.5
		c6.26-7.71,13.67-14.11,22.73-18.22c11.8-5.35,24.05-9.32,36.89-11.58c9.58-1.68,9.38-2.08,8.34-11.43
		c-0.38-3.42-1.94-4.08-5.05-3.98c-4.49,0.16-8.33,2.21-12.35,3.67c-22.7,8.23-40.34,22.97-54.08,42.6
		C306.44,490.01,305.06,491.59,305.51,494.92z M459.81,388.75c-4.65,1.62-7.01,6.51-10.54,10.11c-1.74,1.77-0.51,3.45,1.48,3.98
		c6.94,1.84,12.66,6.18,19.03,9.17c3.88,1.82,7.18,2.07,10.2-1c3.54-3.59,7.68-7.02,5.95-13.08
		C482.82,386.96,471.35,382.73,459.81,388.75z M384.97,446.78c2.48-0.08,2.82-1.35,3.46-2.28c8.72-12.76,16.4-26.29,27.67-37.16
		c1.41-1.36,3.99-2.98,1.42-5.25c-2.06-1.83-4.9-3.4-7.42-1.06c-6.72,6.25-14.12,11.88-18.73,20.14c-1.6,2.86-1.74,5.1,1.1,7.12
		c1.14,0.81,2.34,1.8,1.54,3.38c-0.7,1.39-2.2,1.81-3.57,1.38c-4.57-1.42-4.9,1.6-5.1,4.73
		C385.15,440.66,385.09,443.56,384.97,446.78z M497.55,410.06c-1.76,1.06-1.88,2.91-2.17,4.62c-0.77,4.64-1.35,9.32-2.18,13.94
		c-1.66,9.17-1.71,9.16,7.92,8.32c12.85-1.12,12.9-1.2,7.5-12.92c-0.08-0.18-0.15-0.36-0.24-0.54c-0.93-1.93-1.89-3.3-4.51-2.1
		c-4.18,1.92-4.18-0.64-3.6-3.69c0.33-1.71,0.73-3.49,0.56-5.19C500.68,410.86,499.58,409.62,497.55,410.06z"/>
</g>
</svg>
